<?xml version="1.0" encoding="UTF-8" standalone="no"?>
<!-- Created with Inkscape (http://www.inkscape.org/) -->

<svg
   version="1.1"
   id="svg1"
   width="415.11481"
   height="433.34628"
   viewBox="0 0 415.11481 433.34628"
   xml:space="preserve"
   xmlns="http://www.w3.org/2000/svg"
   xmlns:svg="http://www.w3.org/2000/svg"><defs
     id="defs1"><rect
       x="1822.3192"
       y="1586.5872"
       width="303.87335"
       height="78.270409"
       id="rect2" /></defs><g
     id="layer1"
     style="display:inline"
     transform="translate(-1773.1615,-1244.4489)"><rect
       style="display:inline;fill:#dbe1ec;fill-opacity:1;stroke:#dbe1ec;stroke-opacity:1"
       id="rect1"
       width="414.11481"
       height="432.34628"
       x="1773.6615"
       y="1244.9489"
       ry="57.298904"
       rx="57.298904" /></g><g
     id="layer2"
     style="display:none"
     transform="translate(-1773.1615,-1244.4489)"><path
       style="display:inline;fill:#6e5e61;fill-opacity:0;stroke:#867578;stroke-width:1.6;stroke-dasharray:none;stroke-opacity:1"
       d="m 1928.8474,1486.8498 c -0.3263,7.1836 26.1937,8.8808 21.4726,-9.0134"
       id="path3" /><path
       style="display:inline;fill:#6e5e61;fill-opacity:1;stroke:#867578;stroke-opacity:1"
       d="m 1829.0553,1513.3466 59.1289,-24.9473 a 3.8977928,3.8977928 178.10911 0 1 2.7902,-0.092 l 4.9479,1.7128 c 1.1619,0.4022 2.9861,0.2631 4.0451,-0.3616 9.9353,-5.861 11.4835,-11.4274 19.7472,-17.5756 1.9797,-1.4728 5.4095,-3.5447 7.5117,-4.8383 l 13.1229,-8.0757 184.2318,-56.8048 2.6474,6.6184 -91.5709,27.804 a 35.603943,35.603943 117.93661 0 0 -4.5607,8.6003 14.228739,14.228739 140.58492 0 1 -8.9433,7.3501 l -86.1797,29.7551 a 15.167214,15.167214 151.21044 0 0 -4.4982,2.4718 l -0.4189,0.3336 a 20.71242,20.71242 148.29433 0 1 -4.1883,2.5873 l -0.5866,0.2721 a 37.930404,37.930404 141.40695 0 0 -14.0554,11.2175 l -5.41,7.0011 -0.5264,10.0005 c -0.069,1.3094 -1.1739,2.1996 -2.4708,2.0066 -3.3463,-0.4978 -9.599,-1.3464 -14.2468,-1.4967 -2.5252,-0.082 -6.178,1.508 -8.1633,3.0807 l -44.7578,35.4576 a 1.4498068,1.4498068 19.117979 0 1 -2.3107,-0.801 l -8.3691,-35.191 a 5.2791399,5.2791399 116.8735 0 1 3.0838,-6.0853 z"
       id="path1" /><path
       style="display:inline;fill:#6e5e61;fill-opacity:1;stroke:#867578;stroke-opacity:1"
       d="m 1917.0877,1447.4043 21.9284,-6.5679 a 4.0065938,4.0065938 178.68084 0 1 2.1212,-0.049 l 1.4589,0.3647 a 4.5373688,4.5373688 179.30672 0 0 2.307,-0.028 l 27.3369,-7.5412 a 6.7164707,6.7164707 151.07081 0 0 2.746,-1.5176 l 0.6482,-0.5927 a 12.320201,12.320201 151.10407 0 1 5.0508,-2.7877 l 18.3755,-5.0461 a 1.0091917,1.0091917 29.798972 0 1 1.2418,0.7112 l 2.404,8.9427 a 0.82610319,0.82610319 119.38216 0 1 -0.5675,1.0078 l -18.1212,5.261 a 19.797657,19.797657 171.33253 0 1 -5.1239,0.7811 l -2.0782,0.042 a 8.5711465,8.5711465 171.78059 0 0 -2.0893,0.3018 l -27.0075,7.3849 a 6.4378168,6.4378168 151.71136 0 0 -2.5496,1.3722 l -2.4853,2.1822 a 6.7235842,6.7235842 151.18751 0 1 -2.5445,1.3996 l -19.4312,5.6971 a 1.1737143,1.1737143 28.666216 0 1 -1.4566,-0.7964 l -2.7603,-9.423 a 0.88649999,0.88649999 118.4997 0 1 0.5964,-1.0984 z"
       id="path2" /></g><g
     id="g23"
     style="display:none"
     transform="translate(-1773.1615,-1244.4489)"><ellipse
       style="fill:#6e5e61;fill-opacity:0;stroke:#6e5e61;stroke-width:3.65823;stroke-dasharray:none;stroke-opacity:1"
       id="ellipse14"
       ry="11.025599"
       rx="9.9296398"
       cy="1817.0532"
       cx="2507.0149"
       transform="matrix(0.99267969,-0.12077676,-0.28912827,0.95729036,0,0)" /><ellipse
       style="fill:#6e5e61;fill-opacity:0;stroke:#6e5e61;stroke-width:3.65823;stroke-dasharray:none;stroke-opacity:1"
       id="ellipse15"
       ry="11.025599"
       rx="9.9296398"
       cy="1794.9495"
       cx="2511.4395"
       transform="matrix(0.99267969,-0.12077676,-0.28912827,0.95729036,0,0)" /><ellipse
       style="fill:#6e5e61;fill-opacity:0;stroke:#6e5e61;stroke-width:3.65823;stroke-dasharray:none;stroke-opacity:1"
       id="ellipse16"
       ry="11.025599"
       rx="9.9296398"
       cy="1778.6685"
       cx="2496.3384"
       transform="matrix(0.99267969,-0.12077676,-0.28912827,0.95729036,0,0)" /><ellipse
       style="fill:#6e5e61;fill-opacity:0;stroke:#6e5e61;stroke-width:3.65823;stroke-dasharray:none;stroke-opacity:1"
       id="ellipse17"
       ry="11.025599"
       rx="9.9296398"
       cy="1800.6335"
       cx="2492.3948"
       transform="matrix(0.99267969,-0.12077676,-0.28912827,0.95729036,0,0)" /><ellipse
       style="fill:#6e5e61;fill-opacity:0;stroke:#6e5e61;stroke-width:3.65823;stroke-dasharray:none;stroke-opacity:1"
       id="ellipse18"
       ry="11.025599"
       rx="9.9296398"
       cy="1785.7274"
       cx="2476.2925"
       transform="matrix(0.99267969,-0.12077676,-0.28912827,0.95729036,0,0)" /><ellipse
       style="fill:#6e5e61;fill-opacity:0;stroke:#6e5e61;stroke-width:3.65823;stroke-dasharray:none;stroke-opacity:1"
       id="ellipse19"
       ry="11.025599"
       rx="9.9296398"
       cy="1807.2373"
       cx="2472.2534"
       transform="matrix(0.99267969,-0.12077676,-0.28912827,0.95729036,0,0)" /><ellipse
       style="fill:#6e5e61;fill-opacity:0;stroke:#6e5e61;stroke-width:3.65823;stroke-dasharray:none;stroke-opacity:1"
       id="ellipse20"
       ry="11.025599"
       rx="9.9296398"
       cy="1821.9113"
       cx="2487.2971"
       transform="matrix(0.99267969,-0.12077676,-0.28912827,0.95729036,0,0)" /><path
       style="fill:#6e5e61;fill-opacity:0;stroke:#6e5e61;stroke-width:4;stroke-dasharray:none;stroke-opacity:1"
       d="m 1971.2941,1390.7856 85.8423,100.3953 c 5.0857,8.8402 -3.1441,17.6146 -9.9039,20.8366 2.5442,4.9553 -4.174,21.2408 -20.1094,19.3304 -5.2118,8.8841 -15.4463,11.8607 -21.4594,8.7997 l -83.6547,-99.7633"
       id="path20"
       transform="matrix(0.98813209,0,0,0.99864746,23.721659,2.3294764)" /><path
       style="fill:#6e5e61;fill-opacity:0;stroke:#6e5e61;stroke-width:2.89517;stroke-dasharray:none;stroke-opacity:1"
       d="m 1960.5613,1486.4506 c 17.8497,5.0385 57.8079,-20.2733 47.0934,-52.1952"
       id="path21" /><path
       style="fill:#6e5e61;fill-opacity:0;stroke:#6e5e61;stroke-width:2.8954;stroke-dasharray:none;stroke-opacity:1"
       d="m 1973.3359,1501.984 c 18.0395,5.5172 58.0263,-5.6423 47.2401,-52.5408"
       id="path22" /><path
       style="display:inline;fill:#6e5e61;fill-opacity:0;stroke:#6e5e61;stroke-width:1.7;stroke-dasharray:none;stroke-opacity:1"
       d="m 1954.9996,1446.7974 71.2981,83.3438"
       id="path10" /><path
       style="display:inline;fill:#6e5e61;fill-opacity:0;stroke:#6e5e61;stroke-width:1.7;stroke-dasharray:none;stroke-opacity:1"
       d="m 1970.9996,1424.7974 74.9814,87.9479"
       id="path11" /><path
       style="display:inline;fill:#6e5e61;fill-opacity:0;stroke:#6e5e61;stroke-width:2.5;stroke-dasharray:none;stroke-opacity:1"
       d="m 1952.8835,1422.3803 c -22.0033,-34.7842 -48.3725,-44.8686 -74.7165,-34.5096"
       id="path14" /></g><g
     id="layer8"
     style="display:none"
     transform="translate(-1773.1615,-1244.4489)"><path
       style="fill:#6e5e61;fill-opacity:1;stroke:#6e5e61;stroke-width:1.897;stroke-dasharray:none;stroke-opacity:1"
       d="m 1898.235,1445.642 58.6083,-0.8373 a 3.8811263,3.8811263 23.558656 0 1 2.9368,1.2805 l 13.7954,15.2869 a 6.9412589,6.9412589 24.026767 0 0 5.1388,2.2908 l 69.2727,0.1424 a 5.5581978,5.5581978 45.44939 0 1 5.5463,5.634 l -0.9358,68.643 a 5.267833,5.267833 135.55466 0 1 -5.2975,5.196 l -150.8501,-0.8645 a 4.5257685,4.5257685 45.846137 0 1 -4.4985,-4.6334 l 2.095,-87.9896 a 4.2504988,4.2504988 135.27276 0 1 4.1886,-4.1488 z"
       id="path23" /><path
       style="display:inline;fill:#6e5e61;fill-opacity:1;stroke:#6e5e61;stroke-width:1.897;stroke-dasharray:none;stroke-opacity:1"
       d="m 1921.5883,1424.2798 14.9202,-33.9849 a 3.1290952,3.1290952 155.99857 0 1 3.8474,-1.7131 l 109.2336,36.1141 a 0.83967869,0.83967869 65.624369 0 1 0.5097,1.1247 l -7.5502,17.8267 a 1.396041,1.396041 148.01456 0 1 -1.3604,0.8495 l -53.1808,-2.8568 a 4.3237568,4.3237568 22.834513 0 1 -2.6944,-1.1345 l -12.397,-11.3972 a 2.7908099,2.7908099 22.972719 0 0 -1.7256,-0.7316 l -48.8455,-2.8603 a 0.88310285,0.88310285 58.526975 0 1 -0.757,-1.2366 z"
       id="path24" /></g><g
     id="layer9"
     style="display:inline"
     transform="translate(-1765.1615,-1244.4489)"><rect
       style="display:inline;fill:#564647;fill-opacity:1;stroke:#564647;stroke-width:1.72762;stroke-dasharray:none;stroke-opacity:1"
       id="rect26"
       width="100.44244"
       height="50.631519"
       x="1924.312"
       y="1485.78"
       rx="0"
       ry="0" /><rect
       style="display:inline;fill:#564647;fill-opacity:1;stroke:#564647;stroke-width:1.70155;stroke-dasharray:none;stroke-opacity:1"
       id="rect27"
       width="84.841537"
       height="58.145527"
       x="1939.2748"
       y="1455.1642"
       rx="0"
       ry="0" /><path
       style="display:inline;fill:#564647;fill-opacity:0;stroke:#564647;stroke-width:8.097;stroke-dasharray:none;stroke-opacity:1"
       d="m 1950.0814,1407.7677 c -0.02,5.9055 1.0388,9.8884 -14.2433,17.092 -9.6757,4.5608 -15.3436,11.6 -15.627,17.092 l 1.4889,87.6732 a 5.5314217,5.5314217 44.51355 0 0 5.5306,5.4375 h 93.1253 a 2.950633,2.950633 134.41343 0 0 2.95,-3.011 l -1.8917,-92.3786 c -0.2753,-6.764 -8.7391,-12.5044 -19.0338,-15.8681 -8.7608,-4.0189 -12.5663,-11.0854 -12.6573,-16.0189"
       id="path27" /><rect
       style="display:inline;fill:#564647;fill-opacity:1;stroke:#564647;stroke-width:1.997;stroke-dasharray:none;stroke-opacity:1"
       id="rect28"
       width="46.271622"
       height="23.941536"
       x="1946.4873"
       y="1372.0341"
       ry="4.1437273" /><circle
       style="display:inline;fill:#dbe1ec;fill-opacity:1;stroke:#dbe1ec;stroke-width:1.997;stroke-dasharray:none;stroke-opacity:1"
       id="path29"
       cx="1976.9032"
       cy="1482.1882"
       r="19.22229" /><circle
       style="fill:#564647;fill-opacity:1;stroke:#564647;stroke-width:1.997;stroke-dasharray:none;stroke-opacity:1"
       id="path30"
       cx="1969.5338"
       cy="1487.2484"
       r="3.0928388" /><circle
       style="display:inline;fill:#564647;fill-opacity:1;stroke:#564647;stroke-width:1.997;stroke-dasharray:none;stroke-opacity:1"
       id="circle30"
       cx="1984.5096"
       cy="1487.2483"
       r="3.0928388" /><rect
       style="display:inline;fill:#dbe1ec;fill-opacity:1;stroke:#dbe1ec;stroke-width:1.997;stroke-opacity:1"
       id="rect3"
       width="57.32156"
       height="8.2874546"
       x="2346.4092"
       y="741.49463"
       ry="2.7624848"
       transform="rotate(20.011266)" /><rect
       style="display:inline;fill:#564647;fill-opacity:1;stroke:#564647;stroke-width:1.997;stroke-dasharray:none;stroke-opacity:1"
       id="rect29"
       width="57.781975"
       height="14.96346"
       x="1940.7322"
       y="1381.4727"
       ry="2.7624848" /><rect
       style="display:inline;fill:#dbe1ec;fill-opacity:1;stroke:#dbe1ec;stroke-width:1.997;stroke-opacity:1"
       id="rect8"
       width="57.32156"
       height="8.2874546"
       x="1296.9849"
       y="2102.8914"
       ry="2.7624848"
       transform="rotate(-20.38324)" /></g><g
     id="layer3"
     style="display:inline"
     transform="translate(-1765.1615,-1244.4489)"><text
       xml:space="preserve"
       style="font-style:normal;font-variant:normal;font-weight:normal;font-stretch:normal;font-size:74.6567px;font-family:'Veteran Typewriter';-inkscape-font-specification:'Veteran Typewriter, Normal';font-variant-ligatures:normal;font-variant-caps:normal;font-variant-numeric:normal;font-variant-east-asian:normal;display:inline;fill:#000000;fill-opacity:1;stroke:#000000;stroke-width:1.897;stroke-dasharray:none;stroke-opacity:1"
       x="1896.9937"
       y="1315.7847"
       id="text8"
       transform="scale(0.9838987,1.0163648)"><tspan
         id="tspan8"
         x="1896.9937"
         y="1315.7847">Poison</tspan></text></g><g
     id="layer4"
     style="display:inline"
     transform="translate(-1773.1615,-1244.4489)"><text
       xml:space="preserve"
       id="text1"
       style="font-style:normal;font-variant:normal;font-weight:normal;font-stretch:normal;font-size:64px;font-family:LimerickSerial;-inkscape-font-specification:'LimerickSerial, Normal';font-variant-ligatures:normal;font-variant-caps:normal;font-variant-numeric:normal;font-variant-east-asian:normal;white-space:pre;shape-inside:url(#rect2);display:inline;fill:#828982;fill-opacity:1;stroke:#828982;stroke-width:1.6;stroke-opacity:1"
       transform="matrix(1.2427551,0,0,1.2458368,-435.20583,-402.45734)"><tspan
         x="1822.3184"
         y="1645.9297"
         id="tspan2">G • K • L</tspan></text></g></svg>
