<?xml version="1.0" encoding="UTF-8" standalone="no"?>
<!-- Created with Inkscape (http://www.inkscape.org/) -->

<svg
   version="1.1"
   id="svg1"
   width="415.11487"
   height="433.34631"
   viewBox="0 0 415.11487 433.34631"
   xmlns="http://www.w3.org/2000/svg"
   xmlns:svg="http://www.w3.org/2000/svg">
  <defs
     id="defs1">
    <rect
       x="1822.3192"
       y="1586.5872"
       width="303.87335"
       height="78.270409"
       id="rect2" />
    <rect
       x="1836.1315"
       y="1278.1096"
       width="294.66504"
       height="96.686966"
       id="rect7" />
  </defs>
  <g
     id="layer1"
     style="display:inline"
     transform="translate(-1773.1615,-1244.4489)">
    <rect
       style="display:inline;fill:#dbe1ec;fill-opacity:1;stroke:#dbe1ec;stroke-opacity:1"
       id="rect1"
       width="414.11481"
       height="432.34628"
       x="1773.6615"
       y="1244.9489"
       ry="57.298904"
       rx="57.298904" />
  </g>
  <g
     id="layer2"
     style="display:inline"
     transform="translate(-1773.1615,-1244.4489)">
    <path
       style="display:inline;fill:#6e5e61;fill-opacity:0;stroke:#867578;stroke-width:1.6;stroke-dasharray:none;stroke-opacity:1"
       d="m 1928.8474,1486.8498 c -0.3263,7.1836 26.1937,8.8808 21.4726,-9.0134"
       id="path3" />
    <path
       style="display:inline;fill:#6e5e61;fill-opacity:1;stroke:#867578;stroke-opacity:1"
       d="m 1829.0553,1513.3466 59.1289,-24.9473 a 3.8977928,3.8977928 178.10911 0 1 2.7902,-0.092 l 4.9479,1.7128 c 1.1619,0.4022 2.9861,0.2631 4.0451,-0.3616 9.9353,-5.861 11.4835,-11.4274 19.7472,-17.5756 1.9797,-1.4728 5.4095,-3.5447 7.5117,-4.8383 l 13.1229,-8.0757 184.2318,-56.8048 2.6474,6.6184 -91.5709,27.804 a 35.603943,35.603943 117.93661 0 0 -4.5607,8.6003 14.228739,14.228739 140.58492 0 1 -8.9433,7.3501 l -86.1797,29.7551 a 15.167214,15.167214 151.21044 0 0 -4.4982,2.4718 l -0.4189,0.3336 a 20.71242,20.71242 148.29433 0 1 -4.1883,2.5873 l -0.5866,0.2721 a 37.930404,37.930404 141.40695 0 0 -14.0554,11.2175 l -5.41,7.0011 -0.5264,10.0005 c -0.069,1.3094 -1.1739,2.1996 -2.4708,2.0066 -3.3463,-0.4978 -9.599,-1.3464 -14.2468,-1.4967 -2.5252,-0.082 -6.178,1.508 -8.1633,3.0807 l -44.7578,35.4576 a 1.4498068,1.4498068 19.117979 0 1 -2.3107,-0.801 l -8.3691,-35.191 a 5.2791399,5.2791399 116.8735 0 1 3.0838,-6.0853 z"
       id="path1" />
    <path
       style="display:inline;fill:#6e5e61;fill-opacity:1;stroke:#867578;stroke-opacity:1"
       d="m 1917.0877,1447.4043 21.9284,-6.5679 a 4.0065938,4.0065938 178.68084 0 1 2.1212,-0.049 l 1.4589,0.3647 a 4.5373688,4.5373688 179.30672 0 0 2.307,-0.028 l 27.3369,-7.5412 a 6.7164707,6.7164707 151.07081 0 0 2.746,-1.5176 l 0.6482,-0.5927 a 12.320201,12.320201 151.10407 0 1 5.0508,-2.7877 l 18.3755,-5.0461 a 1.0091917,1.0091917 29.798972 0 1 1.2418,0.7112 l 2.404,8.9427 a 0.82610319,0.82610319 119.38216 0 1 -0.5675,1.0078 l -18.1212,5.261 a 19.797657,19.797657 171.33253 0 1 -5.1239,0.7811 l -2.0782,0.042 a 8.5711465,8.5711465 171.78059 0 0 -2.0893,0.3018 l -27.0075,7.3849 a 6.4378168,6.4378168 151.71136 0 0 -2.5496,1.3722 l -2.4853,2.1822 a 6.7235842,6.7235842 151.18751 0 1 -2.5445,1.3996 l -19.4312,5.6971 a 1.1737143,1.1737143 28.666216 0 1 -1.4566,-0.7964 l -2.7603,-9.423 a 0.88649999,0.88649999 118.4997 0 1 0.5964,-1.0984 z"
       id="path2" />
  </g>
  <g
     id="layer3"
     style="display:inline"
     transform="translate(-1773.1615,-1244.4489)">
    <text
       xml:space="preserve"
       id="text6"
       style="font-style:normal;font-variant:normal;font-weight:normal;font-stretch:normal;font-size:64px;font-family:'Veteran Typewriter';-inkscape-font-specification:'Veteran Typewriter, Normal';font-variant-ligatures:normal;font-variant-caps:normal;font-variant-numeric:normal;font-variant-east-asian:normal;white-space:pre;shape-inside:url(#rect7);display:inline;fill:#000000;fill-opacity:1;stroke:#000000;stroke-width:1.6;stroke-dasharray:none;stroke-opacity:1"
       transform="matrix(1.1962247,0,0,1.174511,-358.15228,-235.48496)"><tspan
         x="1836.1309"
         y="1337.0185"
         id="tspan3">Weapons</tspan></text>
  </g>
  <g
     id="layer4"
     transform="translate(-1773.1615,-1244.4489)">
    <text
       xml:space="preserve"
       id="text1"
       style="font-style:normal;font-variant:normal;font-weight:normal;font-stretch:normal;font-size:64px;font-family:LimerickSerial;-inkscape-font-specification:LimerickSerial;white-space:pre;shape-inside:url(#rect2);display:inline;fill:#828982;fill-opacity:1;stroke:#828982;stroke-width:1.6;stroke-opacity:1"
       transform="matrix(1.2427551,0,0,1.2458368,-429.20583,-402.45734)"><tspan
         x="1822.3184"
         y="1645.9297"
         id="tspan4">A • H • J</tspan></text>
  </g>
</svg>
